<svg width="510" height="360" xmlns="http://www.w3.org/2000/svg" xmlns:xlink="http://www.w3.org/1999/xlink" overflow="hidden"><defs><filter id="fx0" x="-10%" y="-10%" width="120%" height="120%" filterUnits="userSpaceOnUse" primitiveUnits="userSpaceOnUse"><feComponentTransfer color-interpolation-filters="sRGB"><feFuncR type="discrete" tableValues="0 0"/><feFuncG type="discrete" tableValues="0 0"/><feFuncB type="discrete" tableValues="0 0"/><feFuncA type="linear" slope="0.631373" intercept="0"/></feComponentTransfer><feGaussianBlur stdDeviation="2 2"/></filter><clipPath id="clip1"><rect x="458" y="145" width="510" height="360"/></clipPath><clipPath id="clip2"><rect x="498" y="190" width="455" height="276"/></clipPath></defs><g clip-path="url(#clip1)" transform="translate(-458 -145)"><g><path d="M498.5 438.5 952.5 438.5M498.5 410.5 952.5 410.5M498.5 383.5 952.5 383.5M498.5 355.5 952.5 355.5M498.5 328.5 952.5 328.5M498.5 300.5 952.5 300.5M498.5 272.5 952.5 272.5M498.5 245.5 952.5 245.5M498.5 217.5 952.5 217.5M498.5 190.5 952.5 190.5" stroke="#D9D9D9" stroke-linejoin="round" stroke-miterlimit="10" fill="none"/></g><g clip-path="url(#clip2)"><g filter="url(#fx0)" transform="translate(529 213)"><g><path d="M7 7 83 7 83 255 7 255ZM159 145 234 145 234 255 159 255ZM310 34 386 34 386 255 310 255Z" fill="#9DC3E6"/></g></g></g><g><path d="M536 218 612 218 612 466 536 466ZM688 356 763 356 763 466 688 466ZM839 245 915 245 915 466 839 466Z" fill="#9DC3E6"/></g><g><path d="M498.5 465.5 952.5 465.5" stroke="#D9D9D9" stroke-width="1.33333" stroke-linejoin="round" stroke-miterlimit="10" fill="none" fill-rule="evenodd"/></g><g><text fill="#595959" font-family="Calibri,Calibri_MSFontService,sans-serif" font-weight="400" font-size="16" transform="translate(475.18 470)">0</text></g><g><text fill="#595959" font-family="Calibri,Calibri_MSFontService,sans-serif" font-weight="400" font-size="16" transform="translate(475.18 443)">1</text></g><g><text fill="#595959" font-family="Calibri,Calibri_MSFontService,sans-serif" font-weight="400" font-size="16" transform="translate(475.18 415)">2</text></g><g><text fill="#595959" font-family="Calibri,Calibri_MSFontService,sans-serif" font-weight="400" font-size="16" transform="translate(475.18 387)">3</text></g><g><text fill="#595959" font-family="Calibri,Calibri_MSFontService,sans-serif" font-weight="400" font-size="16" transform="translate(475.18 360)">4</text></g><g><text fill="#595959" font-family="Calibri,Calibri_MSFontService,sans-serif" font-weight="400" font-size="16" transform="translate(475.18 332)">5</text></g><g><text fill="#595959" font-family="Calibri,Calibri_MSFontService,sans-serif" font-weight="400" font-size="16" transform="translate(475.18 305)">6</text></g><g><text fill="#595959" font-family="Calibri,Calibri_MSFontService,sans-serif" font-weight="400" font-size="16" transform="translate(475.18 277)">7</text></g><g><text fill="#595959" font-family="Calibri,Calibri_MSFontService,sans-serif" font-weight="400" font-size="16" transform="translate(475.18 250)">8</text></g><g><text fill="#595959" font-family="Calibri,Calibri_MSFontService,sans-serif" font-weight="400" font-size="16" transform="translate(475.18 222)">9</text></g><g><text fill="#595959" font-family="Calibri,Calibri_MSFontService,sans-serif" font-weight="400" font-size="16" transform="translate(467.094 195)">10</text></g><g><text fill="#595959" font-family="Calibri,Calibri_MSFontService,sans-serif" font-weight="400" font-size="16" transform="translate(559.73 491)">Evet</text></g><g><text fill="#595959" font-family="Calibri,Calibri_MSFontService,sans-serif" font-weight="400" font-size="16" transform="translate(708.454 491)">Hayır</text></g><g><text fill="#595959" font-family="Calibri,Calibri_MSFontService,sans-serif" font-weight="400" font-size="16" transform="translate(851.138 491)">Nadiren</text></g><g><text fill="#595959" font-family="Calibri,Calibri_MSFontService,sans-serif" font-weight="700" font-size="13" transform="translate(581.605 169)">Sosyal Medya Derslerinizi/İşlerinizi Etkiliyor mu</text></g></g></svg>